<svg xmlns="http://www.w3.org/2000/svg" viewBox="0 0 800 500">
<defs>
<linearGradient id="bg" x1="0" y1="0" x2="1" y2="1">
<stop offset="0" stop-color="#0A0C18"/><stop offset=".6" stop-color="#101828"/><stop offset="1" stop-color="#0A0C18"/>
</linearGradient>
<pattern id="dots" width="40" height="40" patternUnits="userSpaceOnUse">
<circle cx="1.5" cy="1.5" r="1.2" fill="#ffffff" opacity=".05"/>
</pattern>
</defs>
<rect width="800" height="500" fill="url(#bg)"/>
<rect width="800" height="500" fill="url(#dots)"/>

<g stroke="#3A5578" stroke-width="1.5">
<line x1="150" y1="80" x2="150" y2="420"/><line x1="150" y1="420" x2="680" y2="420"/>
<line x1="415" y1="80" x2="415" y2="420" opacity=".5"/><line x1="150" y1="250" x2="680" y2="250" opacity=".5"/>
</g>
<path d="M150 80 L145 92 L155 92 Z" fill="#3A5578"/><path d="M680 420 L668 415 L668 425 Z" fill="#3A5578"/>
<g>
<circle cx="500" cy="150" r="16" fill="#A8CCE8" opacity=".9"/>
<circle cx="600" cy="190" r="14" fill="#7AA8D8" opacity=".9"/>
<circle cx="330" cy="300" r="13" fill="#5A88B8" opacity=".9"/>
<circle cx="500" cy="150" r="26" fill="none" stroke="#A8CCE8" opacity=".35"/>
<circle cx="500" cy="150" r="36" fill="none" stroke="#A8CCE8" opacity=".15"/>
</g>
<g stroke="#A8CCE8" stroke-width="2.4" opacity=".9"><path d="M210 130 h44 M232 108 v44"/></g>
<rect x="196" y="94" width="72" height="72" rx="10" fill="none" stroke="#A8CCE8" opacity=".6" stroke-width="1.8"/>

</svg>