<svg xmlns="http://www.w3.org/2000/svg" viewBox="0 0 800 500">
<defs>
<linearGradient id="bg" x1="0" y1="0" x2="1" y2="1">
<stop offset="0" stop-color="#0E0A14"/><stop offset=".6" stop-color="#1A0E28"/><stop offset="1" stop-color="#0E0A14"/>
</linearGradient>
<pattern id="dots" width="40" height="40" patternUnits="userSpaceOnUse">
<circle cx="1.5" cy="1.5" r="1.2" fill="#ffffff" opacity=".05"/>
</pattern>
</defs>
<rect width="800" height="500" fill="url(#bg)"/>
<rect width="800" height="500" fill="url(#dots)"/>

<path d="M60 250 h90 l24 -60 28 120 26 -90 24 30 h70 l22 -140 30 220 24 -110 20 30 h72 l26 -70 28 90 22 -20 h134"
 fill="none" stroke="#D8A8E8" stroke-width="2.6" opacity=".95"/>
<path d="M60 250 h90 l24 -60 28 120 26 -90 24 30 h70 l22 -140 30 220 24 -110 20 30 h72 l26 -70 28 90 22 -20 h134"
 fill="none" stroke="#D8A8E8" stroke-width="9" opacity=".12"/>
<g fill="#9A78C8">
<circle cx="150" cy="420" r="7"/><circle cx="235" cy="420" r="7" opacity=".85"/><circle cx="320" cy="420" r="7" opacity=".7"/><circle cx="405" cy="420" r="7" opacity=".55"/><circle cx="490" cy="420" r="7" opacity=".4"/><circle cx="575" cy="420" r="7" opacity=".3"/><circle cx="660" cy="420" r="7" opacity=".2"/>
</g>
<line x1="120" y1="80" x2="120" y2="380" stroke="#3A2858" stroke-width="1.2" opacity=".8"/>

</svg>