<svg xmlns="http://www.w3.org/2000/svg" viewBox="0 0 800 500">
<defs>
<linearGradient id="bg" x1="0" y1="0" x2="1" y2="1">
<stop offset="0" stop-color="#04100A"/><stop offset=".6" stop-color="#0A2018"/><stop offset="1" stop-color="#04100A"/>
</linearGradient>
<pattern id="dots" width="40" height="40" patternUnits="userSpaceOnUse">
<circle cx="1.5" cy="1.5" r="1.2" fill="#ffffff" opacity=".05"/>
</pattern>
</defs>
<rect width="800" height="500" fill="url(#bg)"/>
<rect width="800" height="500" fill="url(#dots)"/>

<g stroke="#7FD8A8" fill="none" stroke-width="2" opacity=".8">
<rect x="90" y="70" width="620" height="360" rx="6"/>
<line x1="400" y1="70" x2="400" y2="430"/>
<circle cx="400" cy="250" r="58"/>
<rect x="90" y="165" width="90" height="170"/>
<rect x="620" y="165" width="90" height="170"/>
</g>
<g stroke="#4A88B8" stroke-width="1.3" opacity=".55">
<line x1="180" y1="250" x2="265" y2="140"/><line x1="180" y1="250" x2="265" y2="250"/><line x1="180" y1="250" x2="265" y2="360"/>
<line x1="265" y1="140" x2="380" y2="180"/><line x1="265" y1="250" x2="380" y2="180"/><line x1="265" y1="250" x2="380" y2="320"/><line x1="265" y1="360" x2="380" y2="320"/>
<line x1="380" y1="180" x2="520" y2="130"/><line x1="380" y1="180" x2="520" y2="250"/><line x1="380" y1="320" x2="520" y2="250"/><line x1="380" y1="320" x2="520" y2="370"/>
</g>
<g fill="#A8E8C8">
<circle cx="180" cy="250" r="11"/>
<circle cx="265" cy="140" r="9"/><circle cx="265" cy="250" r="9"/><circle cx="265" cy="360" r="9"/>
<circle cx="380" cy="180" r="9"/><circle cx="380" cy="320" r="9"/>
<circle cx="520" cy="130" r="9"/><circle cx="520" cy="250" r="9"/><circle cx="520" cy="370" r="9"/>
</g>
<g fill="none" stroke="#E8CC7A" stroke-width="2" opacity=".9"><circle cx="620" cy="250" r="12"/><path d="M614 246 L626 254 M626 246 L614 254" stroke-width="1.6"/></g>

</svg>