<svg xmlns="http://www.w3.org/2000/svg" viewBox="0 0 800 500">
<defs>
<linearGradient id="bg" x1="0" y1="0" x2="1" y2="1">
<stop offset="0" stop-color="#0A0C16"/><stop offset=".6" stop-color="#141A32"/><stop offset="1" stop-color="#0A0C16"/>
</linearGradient>
<pattern id="dots" width="40" height="40" patternUnits="userSpaceOnUse">
<circle cx="1.5" cy="1.5" r="1.2" fill="#ffffff" opacity=".05"/>
</pattern>
</defs>
<rect width="800" height="500" fill="url(#bg)"/>
<rect width="800" height="500" fill="url(#dots)"/>
<g fill="none" stroke="#A8B8E8" stroke-width="2.2">
<rect x="105" y="170" width="170" height="120" rx="10"/>
<path d="M105 190 L190 250 L275 190"/>
</g>
<g stroke="#4A5888" stroke-width="1.5" fill="none" opacity=".8">
<path d="M290 230 h60 M350 230 l-10 -7 M350 230 l-10 7"/>
</g>
<g fill="none" stroke="#7A88C8" stroke-width="1.8">
<rect x="390" y="105" width="88" height="290" rx="8"/>
<rect x="502" y="105" width="88" height="290" rx="8"/>
<rect x="614" y="105" width="88" height="290" rx="8"/>
</g>
<g fill="#7A88C8" opacity=".9">
<rect x="402" y="130" width="64" height="34" rx="5"/>
<rect x="402" y="174" width="64" height="34" rx="5" opacity=".7"/>
<rect x="402" y="218" width="64" height="34" rx="5" opacity=".5"/>
<rect x="402" y="262" width="64" height="34" rx="5" opacity=".3"/>
<rect x="514" y="130" width="64" height="34" rx="5" opacity=".8"/>
<rect x="514" y="174" width="64" height="34" rx="5" opacity=".5"/>
<rect x="626" y="130" width="64" height="34" rx="5"/>
</g>
<circle cx="658" cy="147" r="26" fill="none" stroke="#8FD8B8" stroke-width="2.2"/>
<path d="M647 147 l8 9 15 -17" fill="none" stroke="#8FD8B8" stroke-width="2.6" stroke-linecap="round" stroke-linejoin="round"/>
<text x="106" y="330" fill="#4A5888" font-family="Georgia,serif" font-size="21" font-style="italic">inbox in, pipeline out</text>
</svg>