<svg xmlns="http://www.w3.org/2000/svg" viewBox="0 0 800 500">
<defs>
<linearGradient id="bg" x1="0" y1="0" x2="1" y2="1">
<stop offset="0" stop-color="#0C0E06"/><stop offset=".6" stop-color="#20200C"/><stop offset="1" stop-color="#0C0E06"/>
</linearGradient>
<pattern id="dots" width="40" height="40" patternUnits="userSpaceOnUse">
<circle cx="1.5" cy="1.5" r="1.2" fill="#ffffff" opacity=".05"/>
</pattern>
</defs>
<rect width="800" height="500" fill="url(#bg)"/>
<rect width="800" height="500" fill="url(#dots)"/>

<g stroke="#E8CC7A" fill="none" stroke-width="2.4">
<path d="M250 120 h140 v40 a70 70 0 0 1 -140 0 Z"/>
<path d="M250 135 h-38 a30 30 0 0 0 34 46 M390 135 h38 a30 30 0 0 1 -34 46"/>
<path d="M305 228 q15 30 -14 48 h58 q-29 -18 -14 -48" />
<rect x="270" y="286" width="100" height="18" rx="4"/>
</g>
<g stroke="#B89838" stroke-width="1.6" fill="none" opacity=".9">
<path d="M520 120 h40 v50 h40 M520 220 h40 v-50 M600 170 h40 v65 h40 M520 320 h40 v40 h40 M520 420 h40 v-40 M600 380 h40 v-95"/>
</g>
<g fill="#E8CC7A"><circle cx="680" cy="237" r="6"/><circle cx="560" cy="120" r="4" opacity=".6"/><circle cx="560" cy="220" r="4" opacity=".6"/><circle cx="560" cy="320" r="4" opacity=".6"/><circle cx="560" cy="420" r="4" opacity=".6"/></g>

</svg>