<svg xmlns="http://www.w3.org/2000/svg" viewBox="0 0 800 500">
<defs>
<linearGradient id="bg" x1="0" y1="0" x2="1" y2="1">
<stop offset="0" stop-color="#060E10"/><stop offset=".6" stop-color="#0C2018"/><stop offset="1" stop-color="#060E10"/>
</linearGradient>
<pattern id="dots" width="40" height="40" patternUnits="userSpaceOnUse">
<circle cx="1.5" cy="1.5" r="1.2" fill="#ffffff" opacity=".05"/>
</pattern>
</defs>
<rect width="800" height="500" fill="url(#bg)"/>
<rect width="800" height="500" fill="url(#dots)"/>

<g transform="translate(240,240)">
<circle r="110" fill="none" stroke="#8FD8B8" stroke-width="2.4"/>
<polygon points="0,-38 36,-11 22,32 -22,32 -36,-11" fill="none" stroke="#8FD8B8" stroke-width="2"/>
<g stroke="#8FD8B8" stroke-width="1.6" opacity=".8">
<line x1="0" y1="-38" x2="0" y2="-110"/><line x1="36" y1="-11" x2="104" y2="-34"/><line x1="22" y1="32" x2="66" y2="88"/><line x1="-22" y1="32" x2="-66" y2="88"/><line x1="-36" y1="-11" x2="-104" y2="-34"/>
</g>
</g>
<g fill="#8FD8B8">
<rect x="460" y="150" width="210" height="14" rx="7"/>
<rect x="460" y="190" width="150" height="14" rx="7" opacity=".7"/>
<rect x="460" y="230" width="110" height="14" rx="7" opacity=".5"/>
<rect x="460" y="270" width="75" height="14" rx="7" opacity=".35"/>
<rect x="460" y="310" width="48" height="14" rx="7" opacity=".22"/>
</g>
<text x="460" y="128" fill="#8FD8B8" font-family="Georgia,serif" font-size="22" font-style="italic" opacity=".75">champion odds</text>

</svg>