<svg xmlns="http://www.w3.org/2000/svg" viewBox="0 0 800 500">
<defs>
<linearGradient id="bg" x1="0" y1="0" x2="1" y2="1">
<stop offset="0" stop-color="#0D0A12"/><stop offset=".6" stop-color="#1C1035"/><stop offset="1" stop-color="#0D0A12"/>
</linearGradient>
<pattern id="dots" width="40" height="40" patternUnits="userSpaceOnUse">
<circle cx="1.5" cy="1.5" r="1.2" fill="#ffffff" opacity=".05"/>
</pattern>
</defs>
<rect width="800" height="500" fill="url(#bg)"/>
<rect width="800" height="500" fill="url(#dots)"/>

<g stroke="#C9B8F0" fill="none" stroke-width="2" opacity=".85">
<rect x="120" y="120" width="240" height="110" rx="18"/>
<path d="M160 230 L150 260 L200 230"/>
<rect x="420" y="250" width="260" height="110" rx="18" opacity=".65"/>
<path d="M640 360 L655 390 L600 360" opacity=".65"/>
</g>
<g fill="#C9B8F0"><circle cx="180" cy="175" r="7"/><circle cx="225" cy="175" r="7" opacity=".7"/><circle cx="270" cy="175" r="7" opacity=".4"/></g>
<g stroke="#7A68B8" stroke-width="1.4" opacity=".7">
<line x1="480" y1="130" x2="560" y2="90"/><line x1="480" y1="130" x2="580" y2="160"/><line x1="560" y1="90" x2="660" y2="120"/><line x1="580" y1="160" x2="660" y2="120"/><line x1="580" y1="160" x2="560" y2="90"/>
</g>
<g fill="#0D0A12" stroke="#C9B8F0" stroke-width="2">
<circle cx="480" cy="130" r="10"/><circle cx="560" cy="90" r="10"/><circle cx="580" cy="160" r="10"/><circle cx="660" cy="120" r="10"/>
</g>
<g fill="#7A68B8" opacity=".9"><rect x="440" y="290" width="150" height="8" rx="4"/><rect x="440" y="312" width="200" height="8" rx="4" opacity=".6"/><rect x="440" y="334" width="110" height="8" rx="4" opacity=".35"/></g>

</svg>