<svg xmlns="http://www.w3.org/2000/svg" viewBox="0 0 800 500">
<defs>
<linearGradient id="bg" x1="0" y1="0" x2="1" y2="1">
<stop offset="0" stop-color="#0A0814"/><stop offset=".6" stop-color="#141028"/><stop offset="1" stop-color="#0A0814"/>
</linearGradient>
<pattern id="dots" width="40" height="40" patternUnits="userSpaceOnUse">
<circle cx="1.5" cy="1.5" r="1.2" fill="#ffffff" opacity=".05"/>
</pattern>
</defs>
<rect width="800" height="500" fill="url(#bg)"/>
<rect width="800" height="500" fill="url(#dots)"/>

<g fill="none" stroke="#C0B0F0" stroke-width="2">
<rect x="120" y="100" width="380" height="250" rx="10"/>
<line x1="120" y1="140" x2="500" y2="140"/>
<circle cx="145" cy="120" r="5" fill="#C0B0F0"/><circle cx="165" cy="120" r="5" fill="#8A78C8"/><circle cx="185" cy="120" r="5" fill="#5A4898"/>
<rect x="520" y="160" width="150" height="270" rx="22"/>
<line x1="560" y1="185" x2="630" y2="185" stroke-width="3" stroke-linecap="round"/>
<circle cx="595" cy="400" r="10"/>
</g>
<g fill="#8A78C8" opacity=".85">
<rect x="150" y="170" width="140" height="10" rx="5"/><rect x="150" y="195" width="200" height="10" rx="5" opacity=".6"/><rect x="150" y="220" width="110" height="10" rx="5" opacity=".35"/>
<rect x="545" y="215" width="100" height="8" rx="4"/><rect x="545" y="237" width="70" height="8" rx="4" opacity=".6"/>
</g>
<g stroke="#C0B0F0" stroke-width="2.4" fill="none" opacity=".9"><path d="M330 265 l-24 24 24 24 M395 265 l24 24 -24 24 M372 258 l-20 68"/></g>

</svg>