<svg xmlns="http://www.w3.org/2000/svg" viewBox="0 0 800 500">
<defs>
<linearGradient id="bg" x1="0" y1="0" x2="1" y2="1">
<stop offset="0" stop-color="#080C14"/><stop offset=".6" stop-color="#101828"/><stop offset="1" stop-color="#080C14"/>
</linearGradient>
<pattern id="dots" width="40" height="40" patternUnits="userSpaceOnUse">
<circle cx="1.5" cy="1.5" r="1.2" fill="#ffffff" opacity=".05"/>
</pattern>
</defs>
<rect width="800" height="500" fill="url(#bg)"/>
<rect width="800" height="500" fill="url(#dots)"/>

<g transform="translate(250,250)">
<path d="M0 -130 L95 -95 V0 q0 85 -95 130 q-95 -45 -95 -130 V-95 Z" fill="none" stroke="#A8CCE8" stroke-width="2.6"/>
<path d="M-38 5 l26 28 52 -62" fill="none" stroke="#A8CCE8" stroke-width="3.4" stroke-linecap="round" stroke-linejoin="round"/>
</g>
<g transform="translate(575,290)">
<path d="M-115 0 a115 115 0 0 1 230 0" fill="none" stroke="#1E3A52" stroke-width="14"/>
<path d="M-115 0 a115 115 0 0 1 84 -109" fill="none" stroke="#7FD8A8" stroke-width="14"/>
<path d="M-31 -109 a115 115 0 0 1 92 33" fill="none" stroke="#E8CC7A" stroke-width="14"/>
<path d="M61 -76 a115 115 0 0 1 54 76" fill="none" stroke="#E88A7A" stroke-width="14"/>
<line x1="0" y1="0" x2="52" y2="-88" stroke="#A8CCE8" stroke-width="3"/>
<circle r="8" fill="#A8CCE8"/>
<text x="0" y="36" fill="#A8CCE8" font-family="Georgia,serif" font-size="26" font-style="italic" text-anchor="middle" opacity=".8">0–100</text>
</g>

</svg>