<svg xmlns="http://www.w3.org/2000/svg" viewBox="0 0 800 500">
<defs>
<linearGradient id="bg" x1="0" y1="0" x2="1" y2="1">
<stop offset="0" stop-color="#080A16"/><stop offset=".6" stop-color="#0E1428"/><stop offset="1" stop-color="#080A16"/>
</linearGradient>
<pattern id="dots" width="40" height="40" patternUnits="userSpaceOnUse">
<circle cx="1.5" cy="1.5" r="1.2" fill="#ffffff" opacity=".05"/>
</pattern>
</defs>
<rect width="800" height="500" fill="url(#bg)"/>
<rect width="800" height="500" fill="url(#dots)"/>

<g stroke="#1E3A52" stroke-width="1.2" opacity=".9">
<line x1="110" y1="90" x2="110" y2="410"/><line x1="110" y1="410" x2="700" y2="410"/>
</g>
<path d="M140 390 Q220 200 340 160 T690 110" fill="none" stroke="#A8CCE8" stroke-width="2.6"/>
<path d="M140 395 L200 350 L250 372 L310 300 L360 330 L430 240 L480 275 L560 190 L620 215 L690 150" fill="none" stroke="#4A88B8" stroke-width="1.8" opacity=".8"/>
<g fill="#A8CCE8">
<circle cx="340" cy="160" r="7"/><circle cx="500" cy="128" r="5" opacity=".7"/><circle cx="620" cy="113" r="5" opacity=".5"/>
</g>
<g fill="#4A6888" opacity=".7">
<circle cx="260" cy="290" r="4"/><circle cx="320" cy="330" r="4"/><circle cx="390" cy="280" r="4"/><circle cx="430" cy="330" r="4"/><circle cx="470" cy="250" r="4"/><circle cx="540" cy="300" r="4"/>
</g>
<text x="620" y="90" fill="#A8CCE8" font-family="Georgia,serif" font-size="22" font-style="italic" opacity=".7">frontier</text>

</svg>